<?xml version="1.0" standalone="no"?>
<!DOCTYPE svg PUBLIC "-//W3C//DTD SVG 20010904//EN"
 "http://www.w3.org/TR/2001/REC-SVG-20010904/DTD/svg10.dtd">
<svg version="1.0" xmlns="http://www.w3.org/2000/svg"
 width="260.000000pt" height="260.000000pt" viewBox="0 0 260.000000 260.000000"
 preserveAspectRatio="xMidYMid meet">
<metadata>
Created by potrace 1.11, written by Peter Selinger 2001-2013
</metadata>
<g transform="translate(0.000000,260.000000) scale(0.100000,-0.100000)"
fill="#000000" stroke="none">
<path d="M1266 2198 c-18 -29 -43 -71 -55 -93 -12 -22 -30 -53 -40 -70 -10
-16 -29 -50 -43 -75 -14 -25 -48 -84 -77 -132 -28 -48 -51 -91 -51 -97 0 -6
-4 -11 -10 -11 -5 0 -10 -4 -10 -9 0 -8 -63 -118 -418 -731 -52 -91 -103 -178
-112 -195 -10 -16 -67 -117 -129 -223 -61 -107 -111 -198 -111 -203 0 -17 45
-8 283 54 l239 62 79 138 c43 76 79 142 79 147 0 4 6 12 13 18 10 9 13 -29 12
-196 -1 -114 1 -213 3 -220 3 -9 90 -12 387 -12 l383 0 3 23 c3 12 4 124 3
250 0 125 1 227 3 227 2 0 8 -10 14 -22 5 -13 15 -32 22 -43 7 -11 49 -86 95
-166 l83 -145 137 -38 c75 -20 144 -39 152 -41 8 -2 48 -13 87 -24 90 -26 113
-27 113 -3 0 10 -4 22 -9 28 -5 5 -53 86 -106 179 -54 94 -106 184 -116 200
-10 17 -22 37 -26 45 -3 8 -17 32 -30 52 l-23 37 30 18 c17 9 30 20 30 23 0 3
-29 22 -64 42 -63 37 -71 46 -141 173 -6 11 -62 108 -125 215 -62 107 -122
211 -133 230 -164 289 -371 640 -378 640 -5 0 -24 -24 -43 -52z"/>
</g>
</svg>
